<svg width="1440" height="885" viewBox="0 0 1440 885" fill="none" xmlns="http://www.w3.org/2000/svg">
<path d="M0 821L80 815.7C160 810 320 800 480 810.3C640 821 800 853 960 869C1120 885 1280 885 1360 885H1440V789H1360C1280 789 1120 789 960 789C800 789 640 789 480 789C320 789 160 789 80 789H0V821Z" fill="#EB51C2"/>
<rect y="95.3198" width="1440" height="693.68" fill="#EB51C2"/>
<path d="M1440 64L1360 69.3C1280 75 1120 85 960 74.7C800 64 640 32 480 16C320 0 160 0 80 0H0V96H80C160 96 320 96 480 96C640 96 800 96 960 96C1120 96 1280 96 1360 96H1440V64Z" fill="#EB51C2"/>
</svg>
