<svg xmlns="http://www.w3.org/2000/svg" width="96.697" height="12.356" viewBox="0 0 96.697 12.356">
  <g id="グループ_1" data-name="グループ 1" transform="translate(-34.435 -35.05)">
    <path id="パス_13" data-name="パス 13" d="M-41.472-16.8a3.73,3.73,0,0,1,1.459,1.093,2.471,2.471,0,0,1,.524,1.559A2.878,2.878,0,0,1-40.674-11.6a5.1,5.1,0,0,1-2.957.814H-47.58V-22.2H-44.1a5.2,5.2,0,0,1,2.965.737,2.422,2.422,0,0,1,1.08,2.132,2.946,2.946,0,0,1-.371,1.5A2.77,2.77,0,0,1-41.472-16.8Zm-3.771-.729h1.418a1.3,1.3,0,0,0,1-.38,1.323,1.323,0,0,0,.355-.938,1.029,1.029,0,0,0-.4-.876,1.816,1.816,0,0,0-1.112-.3h-1.257Zm1.5,4.653a2.475,2.475,0,0,0,1.33-.318,1.051,1.051,0,0,0,.508-.954q0-1.21-2-1.21h-1.338v2.481Zm8.123-3.6a5.518,5.518,0,0,1,.814-2.9A6.036,6.036,0,0,1-32.6-21.521a5.975,5.975,0,0,1,3.022-.8,5.975,5.975,0,0,1,3.022.8,6.165,6.165,0,0,1,2.224,2.148,5.438,5.438,0,0,1,.83,2.9,5.413,5.413,0,0,1-.83,2.916,6.083,6.083,0,0,1-2.224,2.117,6.067,6.067,0,0,1-3.022.783,6.054,6.054,0,0,1-3.03-.783,5.973,5.973,0,0,1-2.2-2.117A5.493,5.493,0,0,1-35.622-16.473Zm2.417,0a3.551,3.551,0,0,0,.492,1.83,3.628,3.628,0,0,0,1.338,1.326,3.687,3.687,0,0,0,1.878.489,3.5,3.5,0,0,0,1.821-.489,3.517,3.517,0,0,0,1.289-1.318,3.68,3.68,0,0,0,.467-1.838,3.655,3.655,0,0,0-.483-1.861,3.6,3.6,0,0,0-1.313-1.326,3.57,3.57,0,0,0-1.845-.489,3.57,3.57,0,0,0-1.845.489,3.6,3.6,0,0,0-1.313,1.326A3.655,3.655,0,0,0-33.2-16.473ZM-18.909-22.2h3.546a7.413,7.413,0,0,1,3.739.845A5.2,5.2,0,0,1-9.49-19.164a6.36,6.36,0,0,1,.669,2.877,5.253,5.253,0,0,1-.806,2.9,5.34,5.34,0,0,1-2.168,1.931,6.641,6.641,0,0,1-2.99.675h-4.126Zm3.723,9.243a4.324,4.324,0,0,0,2.885-.9,3.2,3.2,0,0,0,1.064-2.59,3.609,3.609,0,0,0-.588-2.171A3.138,3.138,0,0,0-13.2-19.73a4.006,4.006,0,0,0-1.475-.31h-1.9v7.088ZM4.83-22.2.381-14.333v3.552H-1.955v-3.552L-6.323-22.2h2.885l2.724,5.273L1.945-22.2Z" transform="translate(126.302 57.708)" fill="#111"/>
    <path id="パス_14" data-name="パス 14" d="M-27.475-22.5v2.176h-5.753v2.44h5.093v2.176h-5.093v2.471h5.979v2.176h-8.316V-22.5Zm15.584,0v11.9h-.064l-8.3-7.227.048,6.761h-2.369V-22.95h.1l8.284,7.336-.048-6.885ZM3.049-12.211a3.177,3.177,0,0,1-.975.583,8.934,8.934,0,0,1-1.547.5,6.932,6.932,0,0,1-1.539.194,7.366,7.366,0,0,1-3.312-.707,5.264,5.264,0,0,1-2.2-1.958A5.311,5.311,0,0,1-7.3-16.454a6.568,6.568,0,0,1,.822-3.4,5.253,5.253,0,0,1,2.208-2.083,6.761,6.761,0,0,1,3.062-.692,8.506,8.506,0,0,1,2.031.233,7.636,7.636,0,0,1,1.676.606l-.757,2.1a5.979,5.979,0,0,0-1.281-.458A5.645,5.645,0,0,0-.9-20.355a4.244,4.244,0,0,0-2.957.933A3.556,3.556,0,0,0-4.88-16.656a3.356,3.356,0,0,0,.5,1.842,3.241,3.241,0,0,0,1.394,1.2,4.746,4.746,0,0,0,2.039.42,3.468,3.468,0,0,0,1.628-.3v-1.383H-1.367v-2.176H3.049Z" transform="translate(70 58)" fill="#eb51c2"/>
  </g>
</svg>
